<?xml version="1.0" standalone="no"?>
<!DOCTYPE svg PUBLIC "-//W3C//DTD SVG 20010904//EN"
 "http://www.w3.org/TR/2001/REC-SVG-20010904/DTD/svg10.dtd">
<svg version="1.0" xmlns="http://www.w3.org/2000/svg"
 width="64.000000pt" height="64.000000pt" viewBox="0 0 64.000000 64.000000"
 preserveAspectRatio="xMidYMid meet">

<g transform="translate(0.000000,64.000000) scale(0.100000,-0.100000)"
fill="#000000" stroke="none">
<path d="M54 586 c-8 -8 -7 -15 2 -23 9 -9 15 -9 23 1 15 18 -9 40 -25 22z"/>
<path d="M230 581 c0 -10 -7 -24 -15 -31 -10 -9 -15 -32 -15 -77 0 -38 -6 -76
-15 -93 -9 -17 -13 -30 -10 -30 2 0 18 27 35 60 17 33 34 60 40 60 22 0 18
-25 -18 -97 -35 -70 -39 -83 -32 -123 l7 -45 2 53 c1 42 11 72 47 142 46 90
48 110 14 110 -13 0 -17 5 -13 20 8 32 22 34 33 5 9 -23 13 -25 25 -15 8 7 15
19 15 26 0 23 18 16 22 -8 2 -13 10 -23 18 -23 8 0 16 10 18 23 2 12 7 22 12
22 5 0 10 -10 12 -22 2 -13 10 -23 18 -23 8 0 16 10 18 23 4 30 20 28 32 -4
10 -25 30 -25 30 1 0 26 20 26 30 0 10 -27 30 -26 30 3 0 35 19 -5 23 -48 l4
-45 1 46 c1 31 -3 51 -13 59 -8 7 -15 21 -15 31 0 11 -7 19 -15 19 -8 0 -15
-7 -15 -15 0 -8 -7 -15 -15 -15 -8 0 -15 7 -15 15 0 8 -7 15 -15 15 -8 0 -15
-7 -15 -15 0 -20 -20 -19 -36 3 -13 16 -15 16 -29 -2 -15 -20 -15 -20 -30 0
-14 18 -16 18 -29 2 -16 -22 -36 -23 -36 -3 0 8 -7 15 -15 15 -8 0 -15 -7 -15
-15 0 -8 -7 -15 -15 -15 -8 0 -15 7 -15 15 0 8 -7 15 -15 15 -8 0 -15 -8 -15
-19z m6 -59 c9 -13 7 -25 -7 -52 l-19 -35 0 53 c0 54 8 64 26 34z m44 -37 c0
-9 -6 -12 -15 -9 -8 4 -12 10 -9 15 8 14 24 10 24 -6z"/>
<path d="M104 556 c-8 -9 -8 -16 0 -28 10 -13 15 -14 29 -3 9 7 17 16 17 20 0
4 -7 2 -15 -5 -20 -17 -32 -5 -15 15 15 18 0 20 -16 1z"/>
<path d="M55 521 c-3 -6 -2 -17 2 -25 7 -11 10 -12 20 -1 10 10 9 16 -2 25 -9
7 -15 8 -20 1z"/>
<path d="M351 393 c-1 -14 5 -23 14 -23 24 0 17 -27 -8 -34 -70 -17 -109 -127
-69 -192 21 -32 76 -64 111 -64 40 0 90 28 111 62 22 36 26 98 9 129 -8 15 -7
24 2 35 17 21 -5 44 -23 25 -11 -10 -9 -11 7 -5 15 5 17 4 9 -5 -8 -8 -21 -7
-52 6 -41 18 -57 43 -27 43 9 0 15 9 14 23 -1 16 -2 18 -6 5 -3 -13 -15 -18
-43 -18 -28 0 -40 5 -43 18 -4 13 -5 11 -6 -5z m59 -33 c0 -5 -4 -10 -10 -10
-5 0 -10 5 -10 10 0 6 5 10 10 10 6 0 10 -4 10 -10z m61 -79 c47 -47 36 -121
-23 -155 -62 -37 -148 15 -148 91 0 84 109 125 171 64z"/>
<path d="M388 251 c-2 -22 1 -37 5 -34 5 3 14 -1 19 -8 8 -11 8 -10 4 4 -3 10
-6 32 -6 48 0 43 -17 35 -22 -10z"/>
<path d="M91 201 c-48 -95 -49 -99 -29 -104 19 -5 20 -8 8 -22 -13 -16 -15
-16 -21 2 -6 14 -8 12 -8 -10 l-1 -29 29 24 c24 19 128 205 119 213 -2 1 -13
8 -25 14 -21 11 -25 7 -72 -88z m79 69 c0 -17 -80 -170 -88 -170 -5 0 -11 3
-15 6 -9 10 76 174 90 174 7 0 13 -5 13 -10z"/>
<path d="M203 120 c0 -30 2 -43 4 -28 2 16 2 40 0 55 -2 16 -4 3 -4 -27z"/>
<path d="M217 49 c7 -7 15 -10 18 -7 3 3 -2 9 -12 12 -14 6 -15 5 -6 -5z"/>
</g>
</svg>
